# xmcd
#
# Track frame offsets:
#	150
#	17674
#	33732
#	49508
#	64551
#	80797
#	101001
#	117537
#	130395
#	147722
#	166309
#	181018
#	197008
#	213000
#	234265
#	249029
#	271640
#
# Disc length: 3892 seconds
#
# Revision: 0
# Processed by: cddbd v1.5.2PL0 Copyright (c) Steve Scherf et al.
# Submitted via: EasyCDDAExtractor 11.1.0.1
#
DISCID=e40f3211
DTITLE=Various Artist - Byron Bay Bluesfest 2016 - Disc 2
DYEAR=2016
DGENRE=Blues
TTITLE0=City Of Colour - Lover Come Back
TTITLE1=Eagles Of Death Metal - Silverlake (KSOFM)
TTITLE2=Modest Mouse - Float On
TTITLE3=Cold War Kids - First
TTITLE4=Grace Potter And The Nocturnals - Stars
TTITLE5=Ash Grunwald - Second Guess
TTITLE6=Pierce Brothers - Overdose
TTITLE7=St Paul And The Broken Bones - Call Me
TTITLE8=Allen Stone - Freedom
TTITLE9=Nathaniel Rateliff And The Night Sweats - SOB
TTITLE10=Blackberry Smoke - Holding All The Roses
TTITLE11=Marshall Okell - Amsterdam
TTITLE12=Songhoy Blues - Soubour
TTITLE13=Lord Huron - Ends Of The Earth
TTITLE14=Taj Mahal - Fishin' Blues
TTITLE15=Steve Smyth - Written Or Spoken
TTITLE16=Graham Nash - The Path Tonight
EXTD=
EXTT0=
EXTT1=
EXTT2=
EXTT3=
EXTT4=
EXTT5=
EXTT6=
EXTT7=
EXTT8=
EXTT9=
EXTT10=
EXTT11=
EXTT12=
EXTT13=
EXTT14=
EXTT15=
EXTT16=
PLAYORDER=
